# xmcd
#
# Track frame offsets:
#	150
#	14556
#	34954
#	51212
#	66208
#	82685
#	97138
#	106289
#	127186
#	140540
#	156356
#	175108
#
# Disc length: 2547 seconds
# Revision: 0
# Processed by: cddbd v1.5.2PL0 Copyright (c) Steve Scherf et al.
# Submitted via: dBpowerAMP V12.0
#
DISCID=a609f10c
DTITLE=The Lonesome Ace Stringband - Old Time
DYEAR=2014
DGENRE=Folk
TTITLE0=Hold Your Lying Tongue
TTITLE1=Cherry River Line - Gauley Junction
TTITLE2=Fox Hunt
TTITLE3=Devil on a Stump
TTITLE4=Don't Get Trouble in Mind
TTITLE5=Skipping in the Mississippi Dew
TTITLE6=Femme Indigene
TTITLE7=Hills Of Mexico
TTITLE8=Katy Hill
TTITLE9=Green Sleeve
TTITLE10=44. Gun
TTITLE11=Waynesboro - Wolf Creek
EXTD=
EXTT0=
EXTT1=
EXTT2=
EXTT3=
EXTT4=
EXTT5=
EXTT6=
EXTT7=
EXTT8=
EXTT9=
EXTT10=
EXTT11=
PLAYORDER=
